imdb : http://www.imdb.com/title/tt0180093/
Tagline: From the director of [Pi] 
Plot: The hopes and dreams of four ambitious people are shattered when their drug addictions begin spiraling out of control. 
Total Size : 1.40 GB


[code]General
Complete name : Requiem For A Dream 2000 BDRip [H.264 - MP4 - AAC] ~Mindbreaker.mp4
Format : H.264/AAC/MP4 - Anamophic
Source : 720p Sinners
File size : 1.40 GiB
Duration : 1h 41mn
Overall bit rate : 1 963 Kbps


Video
ID : 1
Format : AVC
Format/Info : Advanced Video Codec
Format profile : High@L3.0
Duration : 1h 41mn
Bit rate : 1800 Kbps
Width : 720 pixels
Height : 400 pixels
Display aspect ratio : 1.78
Frame rate : 23.976 fps
Bits/(Pixel*Frame) : 0.261
Stream size : 1.28 GiB (92%)
Writing library : x264 core 80

Audio
ID : 2
Format : AAC
Format/Info : Advanced Audio Codec
Format profile : LC
Duration : 1h 41mn
Bit rate : 160 Kbps
Channel(s) : 2 channels
Sampling rate : 48.0 KHz
Stream size : 116 MiB (8%)
Language : English

Subtitle
Format : SubRip
Language : Dutch & English
Source : ondertitels.com & opensubtitles.org
 
http://genesis.1337x.org:1337/announce 
http://tracker.openbittorrent.com/announce 
http://nemesis.1337x.org/announce

For any kind of question, suggestion or requests you can contact me on http://www.release-lounge.com


